<?xml version="1.0" encoding="UTF-8" standalone="no" ?>
<!DOCTYPE svg PUBLIC "-//W3C//DTD SVG 1.1//EN" "http://www.w3.org/Graphics/SVG/1.1/DTD/svg11.dtd">
<svg xmlns="http://www.w3.org/2000/svg" xmlns:xlink="http://www.w3.org/1999/xlink" version="1.1" width="140.72" height="139.78" xml:space="preserve">
<desc>Created with Fabric.js 1.6.0-rc.1</desc>
<defs></defs>
<g style="stroke: none; stroke-width: 1; stroke-dasharray: none; stroke-linecap: butt; stroke-linejoin: miter; stroke-miterlimit: 10; fill: none; fill-rule: nonzero; opacity: 1;" transform="translate(10 10) scale(0.25 0.25)" >
  <path d="M 454.844 407.816 c -6.701 -17.408 -21.067 -30.72 -38.912 -36.073 l -99.697 -21.624 h -75.294 h -75.294 L 65.95 371.742 c -17.852 5.353 -32.218 18.665 -38.912 36.073 L 0 478.118 h 240.941 h 240.941 L 454.844 407.816 z" style="stroke: none; stroke-width: 1; stroke-dasharray: none; stroke-linecap: butt; stroke-linejoin: miter; stroke-miterlimit: 10; fill: #b84c80; fill-rule: nonzero; opacity: 1;" transform=" matrix(1 0 0 1 0 0) " stroke-linecap="round" />
  <path d="M 353.882 163.298 c -1.099 0 -2.364 0 -3.712 0 c -6.212 5.391 -5.971 26.549 -18.876 58.82 c 0 -1.702 0 -45.176 -7.529 -67.283 c -12.296 -36.088 -48.136 -37.24 -99.607 -37.24 c -21.843 0 -39.499 -2.733 -53.775 -7.319 c -27.294 37.73 -27.324 104.312 -27.324 104.312 s -8.222 -24.734 -12.356 -52.706 c -0.949 0 -1.897 0 -2.703 0 c -7.529 0 -15.059 8.365 -15.059 16.738 c 0 23.266 6.505 53.677 31.458 57.992 c 18.387 68.533 61.877 94.419 96.542 105.976 c 34.409 -11.452 77.523 -37.067 96.136 -104.471 c 25.299 -4.043 31.865 -34.688 31.865 -58.089 C 368.941 171.663 361.412 163.298 353.882 163.298 z" style="stroke: none; stroke-width: 1; stroke-dasharray: none; stroke-linecap: butt; stroke-linejoin: miter; stroke-miterlimit: 10; fill: #F8E0C2; fill-rule: nonzero; opacity: 1;" transform=" matrix(1 0 0 1 0 0) " stroke-linecap="round" />
  <path d="M 224.158 117.594 c -21.843 0 -39.499 -2.733 -53.775 -7.319 c -27.294 37.73 -27.324 104.312 -27.324 104.312 s -8.222 -24.734 -12.356 -52.706 c -0.949 0 -1.897 0 -2.703 0 c -7.529 0 -15.059 8.365 -15.059 16.738 c 0 23.266 6.505 53.677 31.458 57.992 c 18.387 68.533 61.877 94.419 96.542 105.976 V 117.692 C 235.543 117.617 229.963 117.594 224.158 117.594 z" style="stroke: none; stroke-width: 1; stroke-dasharray: none; stroke-linecap: butt; stroke-linejoin: miter; stroke-miterlimit: 10; fill: #FCF1E3; fill-rule: nonzero; opacity: 1;" transform=" matrix(1 0 0 1 0 0) " stroke-linecap="round" />
  <circle cx="351.085" cy="241.91500000000002" r="12.265" style="stroke: none; stroke-width: 1; stroke-dasharray: none; stroke-linecap: butt; stroke-linejoin: miter; stroke-miterlimit: 10; fill: #FFFFFF; fill-rule: nonzero; opacity: 0;" transform="  matrix(1 0 0 1 0 0) "/>
  <circle cx="130.79500000000002" cy="241.91500000000002" r="12.265" style="stroke: none; stroke-width: 1; stroke-dasharray: none; stroke-linecap: butt; stroke-linejoin: miter; stroke-miterlimit: 10; fill: #FFFFFF; fill-rule: nonzero; opacity: 0;" transform="  matrix(1 0 0 1 0 0) "/>
  <path d="M 203.294 259.765 h 75.294 c 0 0 0 22.588 -37.647 22.588 S 203.294 259.765 203.294 259.765 z" style="stroke: none; stroke-width: 1; stroke-dasharray: none; stroke-linecap: butt; stroke-linejoin: miter; stroke-miterlimit: 10; fill: #E57373; fill-rule: nonzero; opacity: 1;" transform=" matrix(1 0 0 1 0 0) " stroke-linecap="round" />
  <path d="M 315.768 51.531 c -19.93 -15.962 -46.095 -25.178 -74.827 -25.178 c -38.52 0 -90.353 30.118 -112.941 -22.588 c -12.604 17.453 -20.924 61.741 11.113 89.653 c -26.248 30.502 3.945 121.171 3.945 121.171 s 0.03 -66.583 27.317 -104.312 c 14.276 4.585 31.932 7.319 53.775 7.319 c 51.479 0 87.319 1.152 99.607 37.24 c 7.537 22.106 7.537 65.581 7.537 67.283 c 15.059 -37.647 12.19 -58.827 22.588 -58.827 C 353.882 131.418 359.063 86.227 315.768 51.531 z" style="stroke: none; stroke-width: 1; stroke-dasharray: none; stroke-linecap: butt; stroke-linejoin: miter; stroke-miterlimit: 10; fill: #212121; fill-rule: nonzero; opacity: 1;" transform=" matrix(1 0 0 1 0 0) " stroke-linecap="round" />
  <path d="M 165.647 285.621 v 64.497 l 75.294 75.294 v -82.824 C 216.215 334.336 187.038 318.712 165.647 285.621 z" style="stroke: none; stroke-width: 1; stroke-dasharray: none; stroke-linecap: butt; stroke-linejoin: miter; stroke-miterlimit: 10; fill: #F8E0C2; fill-rule: nonzero; opacity: 1;" transform=" matrix(1 0 0 1 0 0) " stroke-linecap="round" />
  <path d="M 240.941 342.588 v 82.824 l 75.294 -75.294 v -64.497 C 294.844 318.712 265.668 334.336 240.941 342.588 z" style="stroke: none; stroke-width: 1; stroke-dasharray: none; stroke-linecap: butt; stroke-linejoin: miter; stroke-miterlimit: 10; fill: #F4D0A1; fill-rule: nonzero; opacity: 1;" transform=" matrix(1 0 0 1 0 0) " stroke-linecap="round" />
  <polygon points="316.24,350.12 240.94,425.41 240.94,448 334.8,354.15 " style="stroke: none; stroke-width: 1; stroke-dasharray: none; stroke-linecap: butt; stroke-linejoin: miter; stroke-miterlimit: 10; fill: #B3E0DB; fill-rule: nonzero; opacity: 0;" transform="  matrix(1 0 0 1 0 0) "/>
  <polygon points="165.65,350.12 240.94,425.41 240.94,448 147.09,354.15 " style="stroke: none; stroke-width: 1; stroke-dasharray: none; stroke-linecap: butt; stroke-linejoin: miter; stroke-miterlimit: 10; fill: #B3E0DB; fill-rule: nonzero; opacity: 0;" transform="  matrix(1 0 0 1 0 0) "/>
  <path d="M 414.118 463.059 c 0 4.141 -3.388 7.529 -7.529 7.529 h -82.824 c -4.141 0 -7.529 -3.388 -7.529 -7.529 v -52.706 c 0 -4.134 3.388 -7.529 7.529 -7.529 h 82.824 c 4.141 0 7.529 3.396 7.529 7.529 V 463.059 z" style="stroke: none; stroke-width: 1; stroke-dasharray: none; stroke-linecap: butt; stroke-linejoin: miter; stroke-miterlimit: 10; fill: #FFFFFF; fill-rule: nonzero; opacity: 0;" transform=" matrix(1 0 0 1 0 0) " stroke-linecap="round" />
  <rect x="323.76" y="425.41" rx="0" ry="0" width="30.12" height="37.65" style="stroke: none; stroke-width: 1; stroke-dasharray: none; stroke-linecap: butt; stroke-linejoin: miter; stroke-miterlimit: 10; fill: #BBDEFB; fill-rule: nonzero; opacity: 1;" transform=" matrix(1 0 0 1 0 0) "/>
  <path d="M 406.588 402.824 h -30.118 v -3.765 c 0 -6.212 -5.082 -11.294 -11.294 -11.294 c -6.212 0 -11.294 5.082 -11.294 11.294 v 3.765 h -30.118 c -4.141 0 -7.529 3.396 -7.529 7.529 v 7.529 h 97.882 v -7.529 C 414.118 406.219 410.729 402.824 406.588 402.824 z" style="stroke: none; stroke-width: 1; stroke-dasharray: none; stroke-linecap: butt; stroke-linejoin: miter; stroke-miterlimit: 10; fill: #B3E0DB; fill-rule: nonzero; opacity: 0;" transform=" matrix(1 0 0 1 0 0) " stroke-linecap="round" />
  <rect x="60.23" y="440.47" rx="0" ry="0" width="82.82" height="15.06" style="stroke: none; stroke-width: 1; stroke-dasharray: none; stroke-linecap: butt; stroke-linejoin: miter; stroke-miterlimit: 10; fill: #B3E0DB; fill-rule: nonzero; opacity: 0;" transform=" matrix(1 0 0 1 0 0) "/>
  <rect x="75.29" y="417.88" rx="0" ry="0" width="22.59" height="22.59" style="stroke: none; stroke-width: 1; stroke-dasharray: none; stroke-linecap: butt; stroke-linejoin: miter; stroke-miterlimit: 10; fill: #D32F2F; fill-rule: nonzero; opacity: 1;" transform=" matrix(1 0 0 1 0 0) "/>
  <path d="M 97.882 417.882 H 75.294 v -3.765 c 0 -6.212 5.082 -11.294 11.294 -11.294 s 11.294 5.082 11.294 11.294 V 417.882 z" style="stroke: none; stroke-width: 1; stroke-dasharray: none; stroke-linecap: butt; stroke-linejoin: miter; stroke-miterlimit: 10; fill: #EF5451; fill-rule: nonzero; opacity: 1;" transform=" matrix(1 0 0 1 0 0) " stroke-linecap="round" />
  <rect x="105.41" y="425.41" rx="0" ry="0" width="22.59" height="15.06" style="stroke: none; stroke-width: 1; stroke-dasharray: none; stroke-linecap: butt; stroke-linejoin: miter; stroke-miterlimit: 10; fill: #1565C0; fill-rule: nonzero; opacity: 1;" transform=" matrix(1 0 0 1 0 0) "/>
  <path d="M 128 425.412 h -22.588 v -3.765 c 0 -6.212 5.082 -11.294 11.294 -11.294 c 6.212 0 11.294 5.082 11.294 11.294 V 425.412 z" style="stroke: none; stroke-width: 1; stroke-dasharray: none; stroke-linecap: butt; stroke-linejoin: miter; stroke-miterlimit: 10; fill: #90CAF9; fill-rule: nonzero; opacity: 1;" transform=" matrix(1 0 0 1 0 0) " stroke-linecap="round" />
  <path d="M 195.494 175.94 c 10.775 0 19.78 2.086 22.28 8.531 c 0.03 -7.529 -7.552 -18.417 -22.28 -18.417 c -14.705 0 -22.98 10.888 -22.272 18.417 C 175.714 178.025 184.727 175.94 195.494 175.94 z" style="stroke: none; stroke-width: 1; stroke-dasharray: none; stroke-linecap: butt; stroke-linejoin: miter; stroke-miterlimit: 10; fill: #212121; fill-rule: nonzero; opacity: 1;" transform=" matrix(1 0 0 1 0 0) " stroke-linecap="round" />
  <path d="M 285.267 175.94 c 10.782 0 19.78 2.086 22.28 8.531 c 0.03 -7.529 -7.56 -18.417 -22.28 -18.417 c -14.705 0 -22.987 10.888 -22.264 18.417 C 265.487 178.025 274.5 175.94 285.267 175.94 z" style="stroke: none; stroke-width: 1; stroke-dasharray: none; stroke-linecap: butt; stroke-linejoin: miter; stroke-miterlimit: 10; fill: #212121; fill-rule: nonzero; opacity: 1;" transform=" matrix(1 0 0 1 0 0) " stroke-linecap="round" />
</g>
</svg>